<?xml version="1.0" standalone="no"?>
<!DOCTYPE svg PUBLIC "-//W3C//DTD SVG 20010904//EN"
 "http://www.w3.org/TR/2001/REC-SVG-20010904/DTD/svg10.dtd">
<svg version="1.0" xmlns="http://www.w3.org/2000/svg"
 width="164" height="50" viewBox="0 0 192.000000 192.000000"
 preserveAspectRatio="xMidYMid meet">

<g transform="translate(0.000000,192.000000) scale(0.100000,-0.100000)"
fill="#000000" stroke="none">
<path d="M920 1910 c0 -5 -13 -10 -29 -10 -16 0 -31 -6 -35 -15 -3 -9 -18 -15
-38 -15 -38 0 -188 -44 -241 -72 -22 -11 -46 -17 -54 -14 -15 6 -67 -17 -78
-33 -3 -5 8 -3 25 6 31 15 60 12 60 -6 0 -5 -24 -26 -52 -47 -29 -21 -76 -57
-104 -81 -28 -24 -60 -43 -72 -43 -53 0 -190 -224 -224 -365 -22 -91 -28 -149
-16 -156 7 -4 12 -48 15 -112 10 -315 164 -587 420 -739 302 -180 618 -181
920 -4 72 42 81 52 53 61 -30 10 -50 34 -50 62 0 14 27 87 60 163 55 127 69
170 55 170 -56 0 -237 -211 -290 -337 -9 -20 -21 -41 -28 -45 -16 -10 -97 -10
-97 0 0 4 29 79 65 167 36 88 65 163 65 168 0 4 -16 7 -35 7 -28 0 -38 5 -47
25 -10 22 -7 37 20 102 18 42 30 79 27 82 -4 3 -18 -10 -33 -29 -91 -117 -171
-180 -232 -180 -76 0 -77 36 -10 184 28 61 50 111 50 112 0 10 -73 7 -82 -3
-15 -19 -30 -5 -18 17 7 13 7 21 0 25 -5 3 -10 32 -10 63 0 70 -14 98 -29 61
-15 -33 -91 -285 -91 -300 0 -6 15 -33 34 -59 74 -103 91 -184 61 -286 -17
-59 -58 -100 -135 -140 -49 -25 -66 -28 -155 -28 -76 -1 -107 3 -130 16 -16 9
-40 21 -52 27 -30 14 -49 45 -74 121 -19 60 -20 65 -4 105 22 58 48 80 97 80
30 0 45 -6 59 -24 23 -28 24 -78 4 -105 -8 -11 -15 -26 -15 -33 0 -17 44 -17
57 -1 14 18 48 109 79 210 l26 87 -21 30 c-59 82 -77 183 -46 256 20 50 79
100 141 121 49 16 55 22 69 63 22 64 20 69 -22 73 -30 2 -38 7 -38 23 0 17 8
21 48 25 l49 5 27 80 c39 113 73 176 119 217 57 52 75 59 157 65 91 7 158 -11
191 -50 31 -37 30 -72 -2 -103 -21 -22 -31 -25 -62 -19 -49 9 -64 25 -71 77
-6 41 -7 43 -44 46 -58 5 -85 -32 -135 -179 -23 -67 -39 -126 -36 -131 3 -4
36 -8 75 -8 71 0 81 -7 53 -34 -11 -12 -35 -16 -84 -16 l-69 0 -16 -52 c-8
-28 -15 -55 -15 -60 0 -4 27 -21 59 -38 33 -16 61 -35 63 -42 3 -8 23 -13 56
-13 28 0 56 -5 63 -12 16 -16 14 -76 -4 -110 -25 -47 -107 -233 -107 -242 0
-5 8 -12 17 -15 37 -14 187 162 256 300 38 75 50 84 114 84 l32 0 -20 -46
c-11 -26 -17 -49 -14 -52 3 -3 28 0 56 6 70 16 71 16 54 -20 -8 -18 -37 -89
-65 -158 -28 -69 -55 -134 -60 -145 -22 -47 -60 -149 -60 -159 0 -6 10 3 22
19 40 54 152 167 183 183 79 41 135 29 135 -29 0 -16 -29 -95 -66 -176 -45
-102 -62 -149 -55 -156 12 -12 56 26 93 79 17 24 28 32 43 28 16 -4 27 7 56
58 48 84 65 132 88 236 32 145 35 243 12 352 -11 52 -27 115 -36 140 -10 27
-14 58 -10 78 7 38 -35 116 -118 221 -86 107 -235 219 -276 206 -12 -3 -50 6
-93 24 -107 44 -181 60 -312 67 -64 4 -119 11 -123 17 -11 18 23 27 115 27
108 0 244 -27 346 -70 38 -16 65 -25 60 -20 -14 14 -151 70 -171 70 -11 0 -24
5 -29 10 -6 6 -54 13 -108 17 -53 3 -99 10 -102 15 -7 11 -54 10 -54 -2z"/>
<path d="M380 1710 c-9 -6 -10 -10 -3 -10 6 0 15 5 18 10 8 12 4 12 -15 0z"/>
<path d="M670 1068 c-21 -34 -28 -128 -11 -128 5 0 17 24 26 53 9 28 20 64 25
80 13 39 -15 36 -40 -5z"/>
<path d="M1356 905 c-9 -26 -7 -32 5 -12 6 10 9 21 6 23 -2 3 -7 -2 -11 -11z"/>
<path d="M1336 861 c-4 -7 -5 -15 -2 -18 9 -9 19 4 14 18 -4 11 -6 11 -12 0z"/>
<path d="M1308 788 c-8 -24 -19 -51 -23 -60 -4 -10 -3 -18 3 -18 5 0 12 10 15
23 2 12 12 39 21 60 9 20 12 37 7 37 -5 0 -15 -19 -23 -42z"/>
<path d="M696 584 c-4 -15 -34 -57 -67 -95 -63 -70 -113 -99 -170 -99 -23 0
-30 -4 -27 -16 11 -59 159 -85 232 -42 63 37 81 69 80 141 -1 52 -25 137 -38
137 -2 0 -7 -12 -10 -26z"/>
</g>
</svg>
